# AST/ASF file generated using VICON BodyLanguage
# -----------------------------------------------
:version 1.10
:name VICON
:units
  mass 1.0
  length 0.45
  angle deg
:documentation
   .ast/.asf automatically generated from VICON data using
   VICON BodyBuilder and BodyLanguage model FoxedUp or BRILLIANT.MOD
:root
   order TX TY TZ RX RY RZ
   axis XYZ
   position 0 0 0  
   orientation 0 0 0 
:bonedata
  begin
     id 1 
     name lhipjoint
     direction 0.707368 -0.647095 0.284426 
     length 2.60678 
     axis 0 0 0  XYZ
  end
  begin
     id 2 
     name lfemur
     direction 0.34202 -0.939693 0  
     length 6.63812  
     axis 0 0 20  XYZ
    dof rx ry rz
    limits (-160.0 20.0)
           (-70.0 70.0)
           (-60.0 70.0)
  end
  begin
     id 3 
     name ltibia
     direction 0.34202 -0.939693 0   
     length 7.51178   
     axis 0 0 20   XYZ
    dof rx
    limits (-10.0 170.0)
  end
  begin
     id 4 
     name lfoot
     direction 0.121251 -0.333133 0.935051   
     length 1.83716   
     axis -90 7.62852e-016 20   XYZ
    dof rx rz
    limits (-45.0 90.0)
           (-70.0 20.0)
  end
  begin
     id 5 
     name ltoes
     direction 1.53611e-011 -4.21962e-011 1   
     length 0.916133   
     axis -90 7.62852e-016 20   XYZ
    dof rx
    limits (-90.0 20.0)
  end
  begin
     id 6 
     name rhipjoint
     direction -0.692419 -0.660507 0.290321   
     length 2.55385  
     axis 0 0 0  XYZ 
  end
  begin
     id 7 
     name rfemur
     direction -0.34202 -0.939693 0   
     length 7.29079   
     axis 0 0 -20   XYZ
    dof rx ry rz
    limits (-160.0 20.0)
           (-70.0 70.0)
           (-70.0 60.0)
  end
  begin
     id 8 
     name rtibia
     direction -0.34202 -0.939693 0   
     length 7.47143   
     axis 0 0 -20   XYZ
    dof rx
    limits (-10.0 170.0)
 end
 begin
     id 9 
     name rfoot
     direction -0.119907 -0.329441 0.936532   
     length 1.79439  
     axis -90 -7.62852e-016 -20   XYZ
    dof rx rz
    limits (-45.0 90.0)
           (-20.0 70.0)
  end
  begin
     id 10 
     name rtoes
     direction -1.53571e-011 -4.21961e-011 1   
     length 0.896039   
     axis -90 -7.62852e-016 -20   XYZ
    dof rx
    limits (-90.0 20.0)
  end
  begin
     id 11 
     name lowerback
     direction 0.0367721 0.992912 -0.113016   
     length 1.73542   
     axis 0 0 0   XYZ
    dof rx ry rz
    limits (-20.0 45.0)
           (-30.0 30.0)
           (-30.0 30.0)
  end
  begin
     id 12 
     name upperback
     direction -0.000314626 0.990678 0.136227   
     length 1.7514   
     axis 0 0 0   XYZ
    dof rx ry rz
    limits (-20.0 45.0)
           (-30.0 30.0)
           (-30.0 30.0)
  end
  begin
     id 13 
     name thorax
     direction -0.0226159 0.981151 0.191917   
     length 1.71471   
     axis 0 0 0   XYZ
    dof rx ry rz
    limits (-20.0 45.0)
           (-30.0 30.0)
           (-30.0 30.0)
  end
  begin
     id 14 
     name lowerneck
     direction 0.0219333 0.998071 0.0580739   
     length 1.65882   
     axis 0 0 0   XYZ
    dof rx ry rz
    limits (-20.0 45.0)
           (-30.0 30.0)
           (-30.0 30.0)
  end
  begin
     id 15 
     name upperneck
     direction 0.0384529 0.980058 -0.194957   
     length 1.6612   
     axis 0 0 0   XYZ
    dof rx ry rz
    limits (-20.0 45.0)
           (-30.0 30.0)
           (-30.0 30.0)
  end
  begin
     id 16
     name head
     direction 0.00592123 0.997421 -0.0715234  
     length 1.68077  
     axis 0 0 0   XYZ
    dof rx ry rz
    limits (-20.0 45.0)
           (-30.0 30.0)
           (-30.0 30.0)
  end
  begin
     id 17 
     name lclavicle
     direction 0.904803 0.417826 0.0821728  
     length 3.42227  
     axis 0 0 0   XYZ
    dof ry rz
    limits (-20.0 10.0)
           (0.0 20.0)
  end
  begin
     id 18 
     name lhumerus
     direction 1 -4.48965e-011 -2.68786e-027   
     length 5.11878   
     axis -180 -30 -90   XYZ
    dof rx ry rz
    limits (-60.0 90.0)
           (-90.0 90.0)
           (-90.0 90.0)
  end
  begin
     id 19
     name lradius
     direction 1 -4.48965e-011 2.61168e-028   
     length 3.59971   
     axis -180 -30 -90   XYZ
    dof rx
    limits (-10.0 170.0)
  end
  begin
     id 20
     name lwrist
     direction 1 -4.48965e-011 1.58672e-027   
     length 1.79985   
     axis -1.65735e-015 90 90   XYZ
    dof ry
    limits (-180.0 0.0)
 end
  begin
     id 21 
     name lhand
     direction 1 -4.48942e-011 3.17344e-027   
     length 0.62877   
     axis -2.02492e-015 90 90   XYZ
    dof rx rz
    limits (-90.0 90.0)
           (-45.0 45.0)
  end
  begin
     id 22 
     name lfingers
     direction 1 -4.49011e-011 6.34687e-027   
     length 0.506931   
     axis -4.04985e-015 90 90   XYZ
    dof rx
    limits (0.0 90.0)
  end
  begin
     id 23
     name lthumb
     direction 0.707107 -6.34982e-011 0.707107   
     length 0.727854   
     axis -90 45 2.85299e-015   XYZ
    dof rx rz
    limits (-45.0 45.0)
           (-45.0 45.0)
  end
  begin
     id 24 
     name rclavicle
     direction -0.945647 0.32488 0.0143075   
     length 3.52737  
     axis 0 0 0   XYZ 
    dof ry rz
    limits (-10.0 20.0)
           (-20.0 0.0)
  end
  begin
     id 25 
     name rhumerus
     direction -1 -4.48962e-011 1.92182e-027  
     length 5.4902   
     axis -180 30 90   XYZ
    dof rx ry rz
    limits (-90.0 60.0)
           (-90.0 90.0)
           (-90.0 90.0)
  end
  begin
     id 26 
     name rradius
     direction -1 -4.48967e-011 -5.97193e-028   
     length 3.20659   
     axis -180 30 90   XYZ
    dof rx
    limits (-10.0 170.0)
  end
  begin
     id 27 
     name rwrist
     direction -1 -4.48964e-011 1.58672e-027   
     length 1.6033   
     axis -1.65735e-015 -90 -90   XYZ
    dof ry
    limits (-180.0 0.0)
  end
  begin
     id 28
     name rhand
     direction -1 -4.49006e-011 3.17344e-027   
     length 0.691885   
     axis -2.02492e-015 -90 -90   XYZ
    dof rx rz
    limits (-90.0 90.0)
           (-45.0 45.0)
  end
  begin
     id 29
     name rfingers
     direction -1 -4.48908e-011 6.34687e-027   
     length 0.557815   
     axis -4.04985e-015 -90 -90   XYZ
    dof rx
    limits (0.0 90.0)
  end
  begin
     id 30
     name rthumb
     direction -0.707107 -6.34999e-011 0.707107   
     length 0.800915   
     axis -90 -45 -2.85299e-015   XYZ
    dof rx rz
    limits (-45.0 45.0)
           (-45.0 45.0)
  end
:hierarchy
  begin
    root lhipjoint rhipjoint lowerback
    lhipjoint lfemur
    lfemur ltibia
    ltibia lfoot
    lfoot ltoes
    rhipjoint rfemur
    rfemur rtibia
    rtibia rfoot
    rfoot rtoes
    lowerback upperback
    upperback thorax
    thorax lowerneck lclavicle rclavicle
    lowerneck upperneck
    upperneck head
    lclavicle lhumerus
    lhumerus lradius
    lradius lwrist
    lwrist lhand lthumb
    lhand lfingers
    rclavicle rhumerus
    rhumerus rradius
    rradius rwrist
    rwrist rhand rthumb
    rhand rfingers
  end

#!OML:ASF I:\Actors\actors\Patient Classification 1\Patient 1\Session 1\Subject1.ASF
:FULLY-SPECIFIED
:DEGREES
36
root 0.675741 17.4421 9.43054 10.7028 -2.46724 -9.23368
lowerback -2.74235 1.01436 6.52472
upperback -8.39995 1.57039 1.94037
thorax -7.16474 0.422162 -1.65645
lowerneck -4.14134 -10.4304 -11.0462
upperneck 14.9443 -15.5876 14.087
head 7.22716 -7.2827 4.9782
rclavicle -2.38542e-015 -1.35174e-014
rhumerus -51.9472 -40.3645 -51.0929
rradius 19.546
rwrist 42.4899
rhand 6.68501 -29.804
rfingers 7.12502
rthumb 31.9758 -57.0148
lclavicle -2.38542e-015 -1.35174e-014
lhumerus -56.1419 46.6216 45.4451
lradius 18.8078
lwrist -35.6806
lhand -17.4241 -13.9201
lfingers 7.12502
lthumb 8.82611 15.8753
rfemur -4.47077 26.0382 25.4149
rtibia 2.17842
rfoot -12.3499 -25.9966
rtoes 6.32579
lfemur 6.18071 -47.8401 -13.0319
ltibia -5.14987
lfoot -30.5634 56.4091
ltoes 19.0637
37
root 0.675569 17.4426 9.42996 10.6982 -2.49205 -9.24331
lowerback -2.75163 1.01763 6.52081
upperback -8.38652 1.57369 1.95138
thorax -7.14474 0.425286 -1.64266
lowerneck -4.11266 -10.4091 -11.1008
upperneck 14.9137 -15.5669 14.1741
head 7.22115 -7.27221 5.01945
rclavicle -1.89342e-014 -9.54166e-015
rhumerus -51.9357 -40.3848 -51.0893
rradius 19.5468
rwrist 42.5054
rhand 6.70517 -29.8281
rfingers 7.12502
rthumb 31.995 -57.0351
lclavicle -1.89342e-014 -9.54166e-015
lhumerus -56.3065 46.7794 45.2188
lradius 18.7903
lwrist -35.9533
lhand -17.5316 -13.8716
lfingers 7.12502
lthumb 8.72235 15.9282
rfemur -4.47654 26.0571 25.4207
rtibia 2.19019
rfoot -12.4164 -25.9659
rtoes 6.57155
lfemur 6.23535 -47.9351 -13.0694
ltibia -5.15248
lfoot -30.7667 56.4669
ltoes 19.1941
38
root 0.676066 17.4425 9.42874 10.7024 -2.49488 -9.24917
lowerback -2.67268 1.04437 6.57761
upperback -8.44422 1.61896 1.917
thorax -7.24875 0.43858 -1.71307
lowerneck -4.02323 -10.4302 -11.1463
upperneck 14.9245 -15.6115 14.2249
head 7.22289 -7.29682 5.04236
rclavicle 7.15625e-015 -1.07344e-014
rhumerus -52.0918 -40.3406 -51.0241
rradius 19.588
rwrist 42.441
rhand 6.82386 -29.9007
rfingers 7.12502
rthumb 32.108 -57.0849
lclavicle 7.15625e-015 -1.07344e-014
lhumerus -57.1689 47.4189 44.0052
lradius 18.7776
lwrist -37.184
lhand -17.5967 -14.0917
lfingers 7.12502
lthumb 8.65957 15.7107
rfemur -4.48689 26.0249 25.4218
rtibia 2.19312
rfoot -12.4159 -25.9243
rtoes 6.60184
lfemur 6.2076 -47.9096 -13.0514
ltibia -5.13593
lfoot -30.634 56.4749
ltoes 19.0849
39
root 0.675975 17.4419 9.42792 10.6953 -2.49823 -9.2377
lowerback -2.60874 1.05919 6.6031
upperback -8.48474 1.6457 1.88721
thorax -7.32705 0.445904 -1.76058
lowerneck -3.98338 -10.4653 -11.1597
upperneck 14.9601 -15.6643 14.2034
head 7.23387 -7.32527 5.03277
rclavicle -2.50469e-014 1.90833e-014
rhumerus -52.2144 -40.2737 -51.0153
rradius 19.6675
rwrist 42.3909
rhand 6.96182 -29.9736
rfingers 7.12502
rthumb 32.2394 -57.1312
lclavicle -2.50469e-014 1.90833e-014
lhumerus -57.5652 47.6624 43.4464
lradius 18.768
lwrist -37.7297
lhand -17.6287 -14.2791
lfingers 7.12502
lthumb 8.6287 15.5246
rfemur -4.47729 26.0027 25.4098
rtibia 2.17602
rfoot -12.3843 -25.914
rtoes 6.54357
lfemur 6.16069 -47.7622 -13.0211
ltibia -5.13495
lfoot -30.3802 56.3993
ltoes 18.8623
40
root 0.675238 17.4415 9.42717 10.6798 -2.51143 -9.23977
lowerback -2.56366 1.06249 6.61013
upperback -8.4945 1.65454 1.8815
thorax -7.36296 0.448322 -1.77161
lowerneck -3.97987 -10.4688 -11.1806
upperneck 14.9795 -15.6735 14.2194
head 7.24382 -7.32951 5.04023
rclavicle 1.14301e-015 -5.96354e-015
rhumerus -52.2847 -40.2995 -50.9653
rradius 19.6873
rwrist 42.4839
rhand 6.99591 -29.9419
rfingers 7.12502
rthumb 32.2718 -57.093
lclavicle 1.14301e-015 -5.96354e-015
lhumerus -57.535 47.6145 43.4931
lradius 18.7762
lwrist -37.6705
lhand -17.6385 -14.3113
lfingers 7.12502
lthumb 8.61921 15.4928
rfemur -4.46933 25.9667 25.4146
rtibia 2.18454
rfoot -12.4021 -25.8666
rtoes 6.606
lfemur 6.23597 -47.8673 -13.076
ltibia -5.14534
lfoot -30.598 56.4756
ltoes 18.9027
41
root 0.674794 17.4415 9.42581 10.6781 -2.51161 -9.25405
lowerback -2.54316 1.06647 6.63243
upperback -8.49797 1.66246 1.88306
thorax -7.37791 0.450296 -1.78297
lowerneck -3.96046 -10.4594 -11.2196
upperneck 14.9648 -15.6665 14.274
head 7.24252 -7.32604 5.06616
rclavicle 2.33572e-015 1.82882e-014
rhumerus -52.3008 -40.319 -50.9375
rradius 19.6732
rwrist 42.5307
rhand 7.00621 -29.9116
rfingers 7.12502
rthumb 32.2816 -57.0606
lclavicle 2.33572e-015 1.82882e-014
lhumerus -57.4582 47.535 43.6231
lradius 18.8096
lwrist -37.5531
lhand -17.6607 -14.2551
lfingers 7.12502
lthumb 8.59782 15.5498
rfemur -4.47528 25.9144 25.4302
rtibia 2.1995
rfoot -12.4299 -25.8027
rtoes 6.68396
lfemur 6.29311 -48.0307 -13.1099
ltibia -5.14413
lfoot -30.9202 56.5659
ltoes 19.1514
42
root 0.674453 17.4414 9.4247 10.672 -2.50447 -9.25053
lowerback -2.54047 1.07158 6.63212
upperback -8.49193 1.66917 1.88125
thorax -7.37225 0.453873 -1.785
lowerneck -3.98521 -10.4859 -11.1861
upperneck 14.9805 -15.6905 14.1874
head 7.24523 -7.33963 5.02804
rclavicle 1.23743e-014 3.45885e-014
rhumerus -52.2764 -40.2671 -50.9883
rradius 19.6951
rwrist 42.4284
rhand 7.0282 -29.9257
rfingers 7.12502
rthumb 32.3025 -57.0705
lclavicle 1.23743e-014 3.45885e-014
lhumerus -57.4362 47.5246 43.6459
lradius 18.7997
lwrist -37.5509
lhand -17.6953 -14.212
lfingers 7.12502
lthumb 8.56441 15.5943
rfemur -4.45858 25.9267 25.4352
rtibia 2.18808
rfoot -12.4345 -25.8184
rtoes 6.68132
lfemur 6.31897 -48.1391 -13.1453
ltibia -5.11615
lfoot -31.2349 56.5682
ltoes 19.5648
43
root 0.67383 17.4409 9.4235 10.6782 -2.49038 -9.28132
lowerback -2.54784 1.07107 6.6517
upperback -8.486 1.66852 1.89242
thorax -7.36172 0.45312 -1.78393
lowerneck -4.0099 -10.5126 -11.1095
upperneck 14.9927 -15.71 14.0566
head 7.23881 -7.35173 4.96946
rclavicle 9.93923e-015 -1.82882e-014
rhumerus -52.2653 -40.2346 -51.0261
rradius 19.7257
rwrist 42.3564
rhand 6.97129 -29.9116
rfingers 7.12502
rthumb 32.2484 -57.0674
lclavicle 9.93923e-015 -1.82882e-014
lhumerus -57.5121 47.609 43.5183
lradius 18.771
lwrist -37.6544
lhand -17.7274 -14.2885
lfingers 7.12502
lthumb 8.53342 15.5191
rfemur -4.45441 25.9815 25.4795
rtibia 2.17712
rfoot -12.4064 -25.8814
rtoes 6.61598
lfemur 6.30744 -48.1831 -13.1003
ltibia -5.10035
lfoot -31.4463 56.5241
ltoes 19.8126
44
root 0.672562 17.4405 9.42164 10.6984 -2.48621 -9.35514
lowerback -2.55276 1.07335 6.70743
upperback -8.48753 1.67368 1.91747
thorax -7.36054 0.452936 -1.78852
lowerneck -3.97094 -10.5071 -11.0997
upperneck 14.9447 -15.7 14.0586
head 7.21447 -7.34936 4.97209
rclavicle 1.78906e-015 -3.57812e-015
rhumerus -52.2551 -40.2228 -51.0388
rradius 19.7303
rwrist 42.3272
rhand 6.87206 -29.8851
rfingers 7.12502
rthumb 32.1539 -57.0601
lclavicle 1.78906e-015 -3.57812e-015
lhumerus -57.5525 47.6295 43.4803
lradius 18.7794
lwrist -37.6383
lhand -17.8517 -14.3055
lfingers 7.12502
lthumb 8.41342 15.5069
rfemur -4.4834 26.0178 25.5622
rtibia 2.17853
rfoot -12.3329 -25.9069
rtoes 6.47703
lfemur 6.23316 -48.0587 -12.9294
ltibia -5.12621
lfoot -31.3549 56.429
ltoes 19.7435
45
root 0.671101 17.4404 9.4208 10.7024 -2.50455 -9.39637
lowerback -2.60532 1.07235 6.69709
upperback -8.44849 1.66731 1.95747
thorax -7.28905 0.454934 -1.73952
lowerneck -3.96418 -10.4948 -11.0793
upperneck 14.8635 -15.6711 14.0454
head 7.1804 -7.33749 4.96878
rclavicle 1.2921e-014 1.74931e-014
rhumerus -52.1559 -40.2505 -51.0594
rradius 19.684
rwrist 42.3366
rhand 6.79342 -29.8594
rfingers 7.12502
rthumb 32.079 -57.0495
lclavicle 1.2921e-014 1.74931e-014
lhumerus -57.2001 47.3628 43.9949
lradius 18.7905
lwrist -37.199
lhand -17.9446 -14.2224
lfingers 7.12502
lthumb 8.32377 15.5936
rfemur -4.49662 26.0659 25.6085
rtibia 2.17288
rfoot -12.2901 -25.9383
rtoes 6.40141
lfemur 6.19816 -47.93 -12.8296
ltibia -5.15576
lfoot -31.1724 56.3857
ltoes 19.5835
46
root 0.671165 17.4404 9.42096 10.7083 -2.51941 -9.41483
lowerback -2.72287 1.05917 6.65349
upperback -8.37662 1.63691 2.01125
thorax -7.14659 0.450411 -1.65572
lowerneck -4.02979 -10.4899 -11.0306
upperneck 14.7981 -15.6435 13.9916
head 7.15879 -7.32347 4.94361
rclavicle 2.18663e-015 -7.95139e-016
rhumerus -51.9835 -40.3445 -51.0561
rradius 19.5932
rwrist 42.4567
rhand 6.76717 -29.8352
rfingers 7.12502
rthumb 32.054 -57.0303
lclavicle 2.18663e-015 -7.95139e-016
lhumerus -56.5277 46.8504 44.9767
lradius 18.8176
lwrist -36.3553
lhand -17.8677 -14.2008
lfingers 7.12502
lthumb 8.39802 15.6123
rfemur -4.51416 26.0691 25.6239
rtibia 2.18984
rfoot -12.3159 -25.9477
rtoes 6.4102
lfemur 6.18667 -47.8621 -12.7909
ltibia -5.18436
lfoot -30.8206 56.4333
ltoes 19.3116
47
root 0.672346 17.4406 9.42013 10.7233 -2.51454 -9.44962
lowerback -2.74008 1.06379 6.713
upperback -8.37966 1.64263 2.01154
thorax -7.13913 0.449507 -1.68822
lowerneck -4.03428 -10.4885 -11.0281
upperneck 14.7942 -15.6484 14.0309
head 7.16216 -7.32306 4.95524
rclavicle 1.3418e-014 -3.4191e-014
rhumerus -52.0173 -40.4571 -50.9337
rradius 19.5322
rwrist 42.57
rhand 6.75521 -29.8303
rfingers 7.12502
rthumb 32.0427 -57.0277
lclavicle 1.3418e-014 -3.4191e-014
lhumerus -56.5245 46.8266 44.9977
lradius 18.838
lwrist -36.2892
lhand -17.7981 -14.2406
lfingers 7.12502
lthumb 8.4652 15.5698
rfemur -4.54612 26.0137 25.6528
rtibia 2.22576
rfoot -12.3422 -25.8909
rtoes 6.41273
lfemur 6.19873 -47.9587 -12.7753
ltibia -5.18184
lfoot -30.775 56.5515
ltoes 19.2519
48
root 0.672572 17.4406 9.41905 10.7265 -2.50116 -9.45447
lowerback -2.64968 1.08099 6.80047
upperback -8.45327 1.67647 1.95172
thorax -7.26699 0.452913 -1.80225
lowerneck -3.92879 -10.4787 -11.0783
upperneck 14.8304 -15.6674 14.1529
head 7.17199 -7.33136 5.00634
rclavicle -9.0944e-015 -2.38542e-014
rhumerus -52.2588 -40.5049 -50.7768
rradius 19.5379
rwrist 42.5708
rhand 6.70841 -29.8709
rfingers 7.12502
rthumb 31.9981 -57.0772
lclavicle -9.0944e-015 -2.38542e-014
lhumerus -57.3707 47.426 43.7567
lradius 18.794
lwrist -37.3426
lhand -17.6945 -14.4686
lfingers 7.12502
lthumb 8.56516 15.3377
rfemur -4.54911 26.0106 25.6576
rtibia 2.22824
rfoot -12.364 -25.871
rtoes 6.51589
lfemur 6.24888 -48.1656 -12.8327
ltibia -5.14534
lfoot -31.1247 56.6752
ltoes 19.3392
49
root 0.672442 17.4401 9.41805 10.7396 -2.4998 -9.41288
lowerback -2.6231 1.08507 6.79245
upperback -8.50287 1.68504 1.91458
thorax -7.33502 0.453208 -1.83767
lowerneck -3.84251 -10.4806 -11.1087
upperneck 14.8562 -15.6858 14.1914
head 7.17321 -7.34299 5.0261
rclavicle 1.28216e-014 -3.1408e-014
rhumerus -52.3768 -40.4684 -50.7235
rradius 19.5318
rwrist 42.5476
rhand 6.65985 -29.8698
rfingers 7.12502
rthumb 31.9519 -57.0854
lclavicle 1.28216e-014 -3.1408e-014
lhumerus -57.9609 47.8037 42.9075
lradius 18.7539
lwrist -38.0232
lhand -17.5332 -14.7354
lfingers 7.12502
lthumb 8.7208 15.0645
rfemur -4.56672 26.0189 25.5969
rtibia 2.20812
rfoot -12.3803 -25.8739
rtoes 6.62693
lfemur 6.22879 -48.2053 -12.8697
ltibia -5.13465
lfoot -31.221 56.6788
ltoes 19.2651
50
root 0.672779 17.4393 9.41674 10.7662 -2.51138 -9.39331
lowerback -2.66445 1.08596 6.75779
upperback -8.50863 1.68258 1.92312
thorax -7.3181 0.455074 -1.80863
lowerneck -3.84171 -10.5043 -11.0855
upperneck 14.8672 -15.7083 14.114
head 7.17125 -7.35719 4.99433
rclavicle -5.51627e-015 1.63003e-014
rhumerus -52.3441 -40.4509 -50.7108
rradius 19.4933
rwrist 42.5795
rhand 6.64206 -29.8051
rfingers 7.12502
rthumb 31.9349 -57.0241
lclavicle -5.51627e-015 1.63003e-014
lhumerus -57.935 47.7767 42.9819
lradius 18.7683
lwrist -37.8928
lhand -17.5523 -14.696
lfingers 7.12502
lthumb 8.70235 15.1046
rfemur -4.61498 25.9837 25.5474
rtibia 2.20518
rfoot -12.367 -25.8377
rtoes 6.58498
lfemur 6.18383 -48.2369 -12.8598
ltibia -5.13644
lfoot -31.4007 56.6547
ltoes 19.5084
